<svg width="1672" height="684" viewBox="0 0 1672 684" fill="none" xmlns="http://www.w3.org/2000/svg">
<path d="M517.946 382.726C512.833 382.726 507.939 382.009 503.262 380.575C498.586 379.078 494.876 377.176 492.133 374.87L496.341 365.423C498.96 367.481 502.202 369.196 506.068 370.567C509.934 371.939 513.893 372.625 517.946 372.625C521.375 372.625 524.15 372.251 526.269 371.503C528.389 370.754 529.948 369.757 530.946 368.51C531.943 367.2 532.442 365.735 532.442 364.114C532.442 362.119 531.725 360.529 530.291 359.344C528.857 358.097 526.986 357.131 524.68 356.445C522.435 355.697 519.91 355.011 517.104 354.388C514.361 353.764 511.586 353.047 508.78 352.236C506.037 351.364 503.512 350.272 501.205 348.963C498.96 347.591 497.121 345.783 495.687 343.539C494.253 341.294 493.536 338.426 493.536 334.934C493.536 331.38 494.471 328.138 496.341 325.208C498.274 322.215 501.174 319.846 505.039 318.1C508.967 316.292 513.924 315.387 519.91 315.387C523.838 315.387 527.735 315.886 531.6 316.884C535.466 317.881 538.833 319.316 541.701 321.186L537.867 330.632C534.936 328.886 531.912 327.608 528.795 326.798C525.677 325.925 522.684 325.488 519.816 325.488C516.449 325.488 513.706 325.893 511.586 326.704C509.528 327.515 508.001 328.575 507.003 329.884C506.068 331.193 505.6 332.69 505.6 334.373C505.6 336.368 506.286 337.989 507.658 339.236C509.092 340.421 510.931 341.356 513.176 342.042C515.483 342.728 518.039 343.414 520.845 344.1C523.651 344.723 526.425 345.44 529.169 346.251C531.975 347.061 534.5 348.121 536.744 349.431C539.051 350.74 540.891 352.517 542.262 354.762C543.696 357.006 544.413 359.843 544.413 363.272C544.413 366.764 543.447 370.006 541.514 372.999C539.644 375.929 536.744 378.299 532.816 380.107C528.888 381.853 523.931 382.726 517.946 382.726ZM599.243 381.79V355.884L601.956 363.366L573.524 316.323H586.524L609.344 354.2H602.049L625.056 316.323H637.027L608.596 363.366L611.402 355.884V381.79H599.243ZM672.134 381.79V316.323H682.141L723.199 366.733H718.242V316.323H730.306V381.79H720.299L679.242 331.38H684.199V381.79H672.134ZM787.13 343.539H819.676V353.546H787.13V343.539ZM788.065 371.596H825.007V381.79H775.907V316.323H823.698V326.517H788.065V371.596ZM866.619 381.79V316.323H893.554C899.353 316.323 904.309 317.258 908.425 319.128C912.602 320.999 915.813 323.68 918.058 327.172C920.302 330.663 921.425 334.81 921.425 339.611C921.425 344.411 920.302 348.558 918.058 352.049C915.813 355.479 912.602 358.129 908.425 359.999C904.309 361.807 899.353 362.711 893.554 362.711H873.353L878.777 357.193V381.79H866.619ZM909.453 381.79L892.899 358.035H905.899L922.547 381.79H909.453ZM878.777 358.503L873.353 352.704H892.993C898.355 352.704 902.377 351.551 905.058 349.244C907.801 346.937 909.173 343.726 909.173 339.611C909.173 335.433 907.801 332.222 905.058 329.977C902.377 327.733 898.355 326.611 892.993 326.611H873.353L878.777 320.625V358.503ZM993.668 382.726C988.555 382.726 983.848 381.915 979.545 380.294C975.306 378.611 971.596 376.272 968.416 373.28C965.236 370.224 962.773 366.639 961.027 362.524C959.282 358.409 958.409 353.92 958.409 349.057C958.409 344.193 959.282 339.704 961.027 335.589C962.773 331.474 965.236 327.92 968.416 324.927C971.658 321.872 975.43 319.534 979.732 317.913C984.035 316.229 988.742 315.387 993.855 315.387C999.404 315.387 1004.39 316.292 1008.82 318.1C1013.31 319.908 1017.08 322.558 1020.14 326.049L1012.47 333.531C1009.91 330.975 1007.14 329.105 1004.14 327.92C1001.21 326.673 997.97 326.049 994.416 326.049C990.987 326.049 987.807 326.611 984.876 327.733C981.946 328.855 979.421 330.445 977.301 332.503C975.181 334.56 973.529 336.992 972.344 339.798C971.222 342.603 970.66 345.69 970.66 349.057C970.66 352.361 971.222 355.416 972.344 358.222C973.529 361.028 975.181 363.491 977.301 365.611C979.421 367.668 981.915 369.258 984.783 370.38C987.651 371.503 990.831 372.064 994.322 372.064C997.565 372.064 1000.68 371.565 1003.67 370.567C1006.73 369.507 1009.63 367.762 1012.37 365.33L1019.29 374.402C1015.86 377.145 1011.87 379.234 1007.32 380.668C1002.83 382.04 998.282 382.726 993.668 382.726ZM1007.79 372.812V348.308H1019.29V374.402L1007.79 372.812ZM1079.47 381.79V355.884L1082.19 363.366L1053.75 316.323H1066.75L1089.57 354.2H1082.28L1105.29 316.323H1117.26L1088.83 363.366L1091.63 355.884V381.79H1079.47Z" fill="white"/>
<path d="M1180.14 270.757C1169.63 270.757 1159.77 268.36 1150.55 263.565C1141.51 258.586 1134.22 251.762 1128.69 243.095L1137.27 233.69C1142.62 241.62 1148.89 247.705 1156.08 251.947C1163.45 256.004 1171.48 258.032 1180.14 258.032C1205.78 258.032 1218.59 242.818 1218.59 212.39V88.4651H1147.23V75.7407H1232.7V212.39C1232.7 231.754 1228.27 246.322 1219.42 256.096C1210.57 265.87 1197.48 270.757 1180.14 270.757ZM1364.15 270.757C1349.77 270.757 1336.4 268.36 1324.04 263.565C1311.87 258.586 1301.18 251.67 1291.96 242.818C1282.92 233.782 1275.91 223.363 1270.93 211.56C1265.95 199.574 1263.46 186.573 1263.46 172.557C1263.46 158.542 1265.95 145.633 1270.93 133.831C1275.91 121.844 1282.92 111.425 1291.96 102.573C1301.18 93.5365 1311.87 86.621 1324.04 81.8263C1336.4 76.8472 1349.77 74.3576 1364.15 74.3576C1378.54 74.3576 1391.81 76.8472 1403.99 81.8263C1416.34 86.621 1427.04 93.4443 1436.07 102.296C1445.11 111.148 1452.12 121.567 1457.1 133.554C1462.26 145.356 1464.84 158.357 1464.84 172.557C1464.84 186.757 1462.26 199.85 1457.1 211.837C1452.12 223.639 1445.11 233.967 1436.07 242.818C1427.04 251.67 1416.34 258.586 1403.99 263.565C1391.81 268.36 1378.54 270.757 1364.15 270.757ZM1364.15 257.756C1376.51 257.756 1387.94 255.635 1398.45 251.394C1408.97 247.152 1418.09 241.159 1425.84 233.413C1433.58 225.668 1439.58 216.632 1443.82 206.305C1448.25 195.978 1450.46 184.728 1450.46 172.557C1450.46 160.202 1448.25 148.952 1443.82 138.81C1439.58 128.483 1433.58 119.446 1425.84 111.701C1418.09 103.956 1408.97 97.9624 1398.45 93.7209C1387.94 89.4794 1376.51 87.3587 1364.15 87.3587C1351.8 87.3587 1340.36 89.4794 1329.85 93.7209C1319.34 97.9624 1310.12 103.956 1302.19 111.701C1294.45 119.446 1288.36 128.483 1283.93 138.81C1279.69 148.952 1277.57 160.202 1277.57 172.557C1277.57 184.728 1279.69 195.978 1283.93 206.305C1288.36 216.632 1294.45 225.668 1302.19 233.413C1310.12 241.159 1319.34 247.152 1329.85 251.394C1340.36 255.635 1351.8 257.756 1364.15 257.756ZM1497.18 269.374V75.7407H1577.95C1598.79 75.7407 1615.11 79.9822 1626.91 88.4651C1638.71 96.9481 1644.61 109.212 1644.61 125.255C1644.61 135.767 1642.12 144.619 1637.15 151.811C1632.17 159.003 1625.25 164.443 1616.4 168.131C1607.73 171.635 1597.96 173.387 1587.08 173.387L1592.06 167.855C1605.33 167.855 1616.68 169.791 1626.08 173.664C1635.49 177.536 1642.59 183.161 1647.38 190.537C1652.36 197.914 1654.85 207.135 1654.85 218.199C1654.85 234.428 1648.95 247.06 1637.15 256.096C1625.34 264.948 1607.45 269.374 1583.48 269.374H1497.18ZM1511.28 257.203H1583.48C1602.11 257.203 1616.31 254.068 1626.08 247.798C1635.85 241.343 1640.74 231.108 1640.74 217.093C1640.74 203.262 1635.85 193.211 1626.08 186.941C1616.31 180.487 1602.11 177.26 1583.48 177.26H1509.62V165.089H1577.4C1594.18 165.089 1607.18 161.861 1616.4 155.407C1625.62 148.952 1630.23 139.271 1630.23 126.362C1630.23 113.637 1625.62 104.048 1616.4 97.5936C1607.18 91.1391 1594.18 87.9119 1577.4 87.9119H1511.28V257.203Z" fill="#00BC8F"/>
<path d="M501.86 268V258.042L639.893 81.559L641.276 87.0914H503.52V74.3669H654.831V84.3252L517.074 260.808L515.415 255.276H657.873V268H501.86ZM684.839 268V74.3669H698.947V268H684.839ZM749.823 268V74.3669H761.718L899.75 250.573H893.388V74.3669H907.496V268H895.878L757.568 91.7939H763.931V268H749.823ZM926.155 268L1015.23 74.3669H1029.33L1118.4 268H1103.19L1019.1 83.2187H1025.18L941.369 268H926.155ZM958.796 213.506L963.498 201.612H1079.4L1084.1 213.506H958.796Z" fill="white"/>
<path d="M221.488 33.1576C343.813 33.1578 442.976 132.322 442.977 254.646C442.977 357.839 372.405 444.55 276.893 469.149L294.225 642.977C296.254 663.327 281.401 681.469 261.051 683.498L260.286 683.575C239.936 685.603 221.794 670.751 219.765 650.401L202.307 475.315C88.963 465.592 0 370.508 0 254.646C0.000262503 132.321 99.1638 33.1576 221.488 33.1576ZM55.7207 210.317C51.9485 224.458 49.9365 239.317 49.9365 254.647C49.9366 349.388 126.74 426.191 221.481 426.191C284.782 426.19 340.073 391.903 369.8 340.888H149.992V311.071L234.88 210.317H55.7207ZM221.481 83.1019C156.475 83.1019 99.9129 119.261 70.8125 172.564H297.155V202.381L212.268 303.135H386.074C390.597 287.759 393.025 271.487 393.025 254.647C393.025 159.906 316.222 83.1024 221.481 83.1019Z" fill="#00BC8F"/>
</svg>
