<svg width="55" height="57" viewBox="0 0 55 57" fill="none" xmlns="http://www.w3.org/2000/svg">
<rect width="54.7094" height="55.2512" fill="#00BB8F"/>
<path d="M30.1869 56.4369C27.3035 56.4369 24.9195 55.7671 23.035 54.4276C21.1732 53.0653 20.1628 51.0786 20.0039 48.4676H28.0414C28.1549 49.8526 28.7679 50.5451 29.8804 50.5451C30.2891 50.5451 30.6297 50.4542 30.9021 50.2726C31.1973 50.0683 31.3449 49.7618 31.3449 49.3531C31.3449 48.7855 31.0384 48.3314 30.4253 47.9908C29.8123 47.6275 28.8587 47.2188 27.5646 46.7647C26.0206 46.2198 24.7378 45.6863 23.7161 45.1641C22.7171 44.6419 21.8543 43.8812 21.1278 42.8822C20.4012 41.8832 20.0493 40.6004 20.072 39.0338C20.072 37.4672 20.4694 36.139 21.264 35.0491C22.0814 33.9366 23.1826 33.0965 24.5675 32.5289C25.9752 31.9613 27.5532 31.6775 29.3015 31.6775C32.2531 31.6775 34.5917 32.3586 36.3172 33.7209C38.0655 35.0832 38.985 37.0017 39.0758 39.4765H30.9362C30.9135 38.7954 30.7432 38.3073 30.4253 38.0121C30.1075 37.7169 29.7215 37.5694 29.2674 37.5694C28.9495 37.5694 28.6884 37.6829 28.4841 37.9099C28.2798 38.1143 28.1776 38.4094 28.1776 38.7954C28.1776 39.3403 28.4727 39.7944 29.0631 40.1577C29.6761 40.4983 30.641 40.9183 31.9579 41.4178C33.4791 41.9854 34.7279 42.5303 35.7042 43.0525C36.7032 43.5747 37.566 44.3013 38.2925 45.2322C39.0191 46.1631 39.3823 47.3324 39.3823 48.74C39.3823 50.2159 39.0191 51.5441 38.2925 52.7247C37.566 53.8827 36.5102 54.7908 35.1252 55.4493C33.7402 56.1077 32.0941 56.4369 30.1869 56.4369Z" fill="white"/>
<path d="M8.37802 50.1704H18.0502V56.1985H0V50.511L9.53596 38.0802H0V32.0862H18.0502V37.7737L8.37802 50.1704Z" fill="white"/>
</svg>
