<svg width="757" height="310" viewBox="0 0 757 310" fill="none" xmlns="http://www.w3.org/2000/svg">
<path d="M234.344 172.991C232.03 172.991 229.816 172.667 227.7 172.018C225.584 171.341 223.906 170.48 222.665 169.437L224.569 165.163C225.754 166.094 227.221 166.869 228.97 167.49C230.719 168.111 232.51 168.421 234.344 168.421C235.895 168.421 237.151 168.252 238.11 167.913C239.069 167.575 239.774 167.123 240.226 166.559C240.677 165.967 240.903 165.304 240.903 164.57C240.903 163.668 240.578 162.948 239.929 162.412C239.28 161.848 238.434 161.411 237.39 161.1C236.375 160.762 235.232 160.452 233.963 160.169C232.722 159.887 231.466 159.563 230.197 159.196C228.956 158.801 227.813 158.308 226.769 157.715C225.754 157.095 224.921 156.276 224.273 155.261C223.624 154.245 223.299 152.948 223.299 151.368C223.299 149.76 223.723 148.293 224.569 146.967C225.443 145.613 226.755 144.541 228.504 143.751C230.281 142.933 232.524 142.524 235.232 142.524C237.01 142.524 238.773 142.75 240.522 143.201C242.271 143.652 243.794 144.301 245.092 145.147L243.357 149.421C242.031 148.631 240.663 148.053 239.252 147.686C237.842 147.291 236.488 147.094 235.19 147.094C233.667 147.094 232.425 147.277 231.466 147.644C230.535 148.011 229.844 148.49 229.393 149.083C228.97 149.675 228.758 150.352 228.758 151.114C228.758 152.017 229.068 152.75 229.689 153.314C230.338 153.85 231.17 154.274 232.186 154.584C233.229 154.894 234.386 155.204 235.655 155.515C236.925 155.797 238.18 156.121 239.422 156.488C240.691 156.855 241.834 157.334 242.849 157.927C243.893 158.519 244.725 159.323 245.346 160.339C245.995 161.354 246.319 162.638 246.319 164.189C246.319 165.769 245.882 167.236 245.007 168.59C244.161 169.916 242.849 170.988 241.072 171.806C239.295 172.596 237.052 172.991 234.344 172.991ZM271.127 172.568V160.846L272.354 164.232L259.49 142.947H265.372L275.697 160.085H272.396L282.806 142.947H288.222L275.358 164.232L276.628 160.846V172.568H271.127ZM304.106 172.568V142.947H308.634L327.21 165.755H324.967V142.947H330.426V172.568H325.898L307.322 149.76H309.565V172.568H304.106ZM356.136 155.261H370.861V159.789H356.136V155.261ZM356.559 167.955H373.273V172.568H351.058V142.947H372.681V147.559H356.559V167.955ZM392.101 172.568V142.947H404.287C406.911 142.947 409.154 143.37 411.016 144.217C412.906 145.063 414.358 146.276 415.374 147.856C416.39 149.435 416.897 151.311 416.897 153.484C416.897 155.656 416.39 157.532 415.374 159.112C414.358 160.663 412.906 161.862 411.016 162.708C409.154 163.526 406.911 163.936 404.287 163.936H395.147L397.602 161.439V172.568H392.101ZM411.481 172.568L403.991 161.82H409.873L417.405 172.568H411.481ZM397.602 162.031L395.147 159.408H404.033C406.46 159.408 408.279 158.886 409.492 157.842C410.733 156.798 411.354 155.345 411.354 153.484C411.354 151.594 410.733 150.141 409.492 149.125C408.279 148.11 406.46 147.602 404.033 147.602H395.147L397.602 144.894V162.031ZM449.584 172.991C447.27 172.991 445.141 172.624 443.194 171.891C441.276 171.129 439.597 170.071 438.159 168.717C436.72 167.335 435.606 165.713 434.816 163.851C434.026 161.989 433.631 159.958 433.631 157.757C433.631 155.557 434.026 153.526 434.816 151.664C435.606 149.802 436.72 148.194 438.159 146.84C439.625 145.458 441.332 144.4 443.279 143.666C445.225 142.905 447.355 142.524 449.668 142.524C452.179 142.524 454.436 142.933 456.439 143.751C458.47 144.569 460.177 145.768 461.559 147.348L458.089 150.733C456.932 149.576 455.677 148.73 454.323 148.194C452.997 147.63 451.53 147.348 449.922 147.348C448.371 147.348 446.932 147.602 445.606 148.11C444.28 148.617 443.138 149.337 442.179 150.268C441.219 151.199 440.472 152.299 439.936 153.568C439.428 154.838 439.174 156.234 439.174 157.757C439.174 159.253 439.428 160.635 439.936 161.904C440.472 163.174 441.219 164.288 442.179 165.247C443.138 166.178 444.266 166.898 445.564 167.405C446.861 167.913 448.3 168.167 449.88 168.167C451.347 168.167 452.757 167.941 454.111 167.49C455.494 167.01 456.806 166.221 458.047 165.12L461.178 169.225C459.627 170.466 457.821 171.411 455.762 172.06C453.731 172.681 451.671 172.991 449.584 172.991ZM455.973 168.506V157.419H461.178V169.225L455.973 168.506ZM488.406 172.568V160.846L489.634 164.232L476.77 142.947H482.652L492.977 160.085H489.676L500.086 142.947H505.502L492.638 164.232L493.907 160.846V172.568H488.406Z" fill="white"/>
<path d="M533.955 122.247C529.199 122.247 524.735 121.163 520.563 118.993C516.475 116.741 513.179 113.653 510.676 109.732L514.555 105.476C516.975 109.064 519.812 111.818 523.066 113.737C526.404 115.572 530.033 116.49 533.955 116.49C545.552 116.49 551.351 109.607 551.351 95.8395V39.7696H519.061V34.0124H557.734V95.8395C557.734 104.6 555.732 111.192 551.727 115.614C547.722 120.036 541.798 122.247 533.955 122.247ZM617.21 122.247C610.702 122.247 604.652 121.163 599.062 118.993C593.555 116.741 588.716 113.612 584.544 109.607C580.456 105.518 577.285 100.804 575.032 95.464C572.779 90.0406 571.653 84.1582 571.653 77.817C571.653 71.4758 572.779 65.6352 575.032 60.2952C577.285 54.8718 580.456 50.1576 584.544 46.1526C588.716 42.0641 593.555 38.9352 599.062 36.7659C604.652 34.5131 610.702 33.3867 617.21 33.3867C623.718 33.3867 629.725 34.5131 635.232 36.7659C640.822 38.9352 645.662 42.0224 649.75 46.0274C653.839 50.0324 657.009 54.7466 659.262 60.17C661.598 65.51 662.766 71.3923 662.766 77.817C662.766 84.2417 661.598 90.1657 659.262 95.5892C657.009 100.929 653.839 105.602 649.75 109.607C645.662 113.612 640.822 116.741 635.232 118.993C629.725 121.163 623.718 122.247 617.21 122.247ZM617.21 116.365C622.8 116.365 627.973 115.406 632.729 113.486C637.485 111.567 641.615 108.856 645.119 105.351C648.624 101.847 651.336 97.7585 653.255 93.086C655.257 88.4135 656.258 83.3239 656.258 77.817C656.258 72.2267 655.257 67.137 653.255 62.548C651.336 57.8755 648.624 53.7871 645.119 50.2827C641.615 46.7783 637.485 44.0666 632.729 42.1476C627.973 40.2285 622.8 39.269 617.21 39.269C611.619 39.269 606.446 40.2285 601.69 42.1476C596.934 44.0666 592.763 46.7783 589.175 50.2827C585.67 53.7871 582.917 57.8755 580.914 62.548C578.995 67.137 578.036 72.2267 578.036 77.817C578.036 83.3239 578.995 88.4135 580.914 93.086C582.917 97.7585 585.67 101.847 589.175 105.351C592.763 108.856 596.934 111.567 601.69 113.486C606.446 115.406 611.619 116.365 617.21 116.365ZM677.396 121.622V34.0124H713.942C723.37 34.0124 730.754 35.9315 736.094 39.7696C741.434 43.6077 744.104 49.1563 744.104 56.4154C744.104 61.1713 742.978 65.1763 740.725 68.4303C738.472 71.6844 735.343 74.1458 731.338 75.8145C727.417 77.3998 722.994 78.1925 718.072 78.1925L720.324 75.6894C726.332 75.6894 731.463 76.5655 735.719 78.3176C739.974 80.0698 743.186 82.6147 745.356 85.9521C747.608 89.2896 748.735 93.4615 748.735 98.4677C748.735 105.81 746.065 111.526 740.725 115.614C735.385 119.619 727.291 121.622 716.445 121.622H677.396ZM683.779 116.115H716.445C724.872 116.115 731.296 114.696 735.719 111.859C740.141 108.939 742.352 104.308 742.352 97.9671C742.352 91.7093 740.141 87.162 735.719 84.3251C731.296 81.4048 724.872 79.9447 716.445 79.9447H683.028V74.4378H713.691C721.284 74.4378 727.166 72.9777 731.338 70.0573C735.51 67.137 737.596 62.7566 737.596 56.916C737.596 51.1588 735.51 46.8201 731.338 43.8998C727.166 40.9795 721.284 39.5193 713.691 39.5193H683.779V116.115Z" fill="#00BC8F"/>
<path d="M227.066 121V116.494L289.519 36.6449L290.144 39.148H227.817V33.3909H296.277V37.8965L233.949 117.746L233.199 115.243H297.654V121H227.066ZM309.855 121V33.3909H316.238V121H309.855ZM339.256 121V33.3909H344.638L407.091 113.115H404.212V33.3909H410.595V121H405.339L342.761 41.2757H345.639V121H339.256ZM419.037 121L459.338 33.3909H465.721L506.021 121H499.137L461.09 37.3959H463.843L425.921 121H419.037ZM433.806 96.3443L435.934 90.9626H488.374L490.501 96.3443H433.806Z" fill="white"/>
<path d="M100.212 15.0022C155.557 15.0024 200.425 59.8695 200.425 115.215C200.425 161.904 168.495 201.134 125.281 212.265L133.123 290.914C134.041 300.122 127.322 308.33 118.114 309.248L117.769 309.282C108.561 310.201 100.353 303.481 99.4346 294.274L91.5352 215.055C40.2522 210.657 0.000219721 167.637 0 115.215C0 59.8695 44.8664 15.0024 100.212 15.0022ZM25.209 95.1575C23.5022 101.556 22.5918 108.279 22.5918 115.215C22.5919 158.081 57.3415 192.83 100.207 192.83C128.847 192.83 153.863 177.316 167.313 154.235H67.8652V140.743L106.272 95.1575H25.209ZM100.207 37.5999C70.7949 37.5999 45.2036 53.96 32.0371 78.0764H134.449V91.5676L96.041 137.154H174.677C176.723 130.197 177.822 122.834 177.822 115.215C177.822 72.3496 143.072 37.6001 100.207 37.5999Z" fill="#00BC8F"/>
</svg>
