<svg width="1495" height="2196" viewBox="0 0 1495 2196" fill="none" xmlns="http://www.w3.org/2000/svg">
<path fill-rule="evenodd" clip-rule="evenodd" d="M747.377 0C1160.14 0.00021568 1494.75 334.612 1494.75 747.377C1494.75 1095.58 1256.62 1388.17 934.333 1471.18L992.817 2057.74C999.664 2126.41 949.547 2187.62 880.878 2194.47L878.3 2194.73C809.631 2201.57 748.413 2151.46 741.566 2082.79L682.659 1491.99C300.196 1459.19 0 1138.34 0 747.377C0.000240366 334.612 334.612 9.90123e-05 747.377 0ZM173.626 670.047C170.249 695.344 168.506 721.158 168.506 747.379C168.506 1067.07 427.666 1326.23 747.355 1326.23C960.957 1326.23 1147.54 1210.53 1247.84 1038.39H421.922L506.131 937.773L731.705 670.039L173.626 670.047ZM747.355 168.529C527.999 168.529 337.142 290.545 238.948 470.407L1097.22 470.408L985.578 597.794L753.3 860.997H1315.06C1322.37 824.258 1326.21 786.267 1326.21 747.379C1326.21 427.689 1067.04 168.53 747.355 168.529Z" fill="white"/>
</svg>
